<svg xmlns="http://www.w3.org/2000/svg" xmlns:xlink="http://www.w3.org/1999/xlink" width="1024" zoomAndPan="magnify" viewBox="0 0 768 767.999994" height="1024" preserveAspectRatio="xMidYMid meet" version="1.2"><defs><clipPath id="62a2ce52b7"><path d="M 82.378906 76.800781 L 691.199219 76.800781 L 691.199219 689 L 82.378906 689 Z M 82.378906 76.800781 "/></clipPath><clipPath id="0159904a2e"><path d="M 118.378906 76.800781 L 655.199219 76.800781 C 675.082031 76.800781 691.199219 92.917969 691.199219 112.800781 L 691.199219 652.8125 C 691.199219 672.695312 675.082031 688.8125 655.199219 688.8125 L 118.378906 688.8125 C 98.496094 688.8125 82.378906 672.695312 82.378906 652.8125 L 82.378906 112.800781 C 82.378906 92.917969 98.496094 76.800781 118.378906 76.800781 Z M 118.378906 76.800781 "/></clipPath><clipPath id="33ca202bcf"><path d="M 0.378906 0.800781 L 609.199219 0.800781 L 609.199219 612 L 0.378906 612 Z M 0.378906 0.800781 "/></clipPath><clipPath id="d9585355f9"><path d="M 36.378906 0.800781 L 573.199219 0.800781 C 593.082031 0.800781 609.199219 16.917969 609.199219 36.800781 L 609.199219 576.8125 C 609.199219 596.695312 593.082031 612.8125 573.199219 612.8125 L 36.378906 612.8125 C 16.496094 612.8125 0.378906 596.695312 0.378906 576.8125 L 0.378906 36.800781 C 0.378906 16.917969 16.496094 0.800781 36.378906 0.800781 Z M 36.378906 0.800781 "/></clipPath><clipPath id="b3fbdec8f9"><rect x="0" width="610" y="0" height="613"/></clipPath></defs><g id="a067744fd8"><g clip-rule="nonzero" clip-path="url(#62a2ce52b7)"><g clip-rule="nonzero" clip-path="url(#0159904a2e)"><g transform="matrix(1,0,0,1,82,76)"><g clip-path="url(#b3fbdec8f9)"><g clip-rule="nonzero" clip-path="url(#33ca202bcf)"><g clip-rule="nonzero" clip-path="url(#d9585355f9)"><path style=" stroke:none;fill-rule:nonzero;fill:#065bff;fill-opacity:1;" d="M 0.378906 0.800781 L 609.199219 0.800781 L 609.199219 611.996094 L 0.378906 611.996094 Z M 0.378906 0.800781 "/></g></g></g></g></g></g><path style=" stroke:none;fill-rule:nonzero;fill:#ffffff;fill-opacity:1;" d="M 508.339844 269.988281 C 480.214844 241.863281 434.460938 241.863281 406.351562 269.988281 L 371.8125 304.519531 C 366.648438 309.679688 366.648438 318.039062 371.8125 323.199219 C 376.972656 328.363281 385.332031 328.363281 390.492188 323.199219 L 425.03125 288.667969 C 469.0625 247.308594 531.113281 309.339844 489.660156 353.296875 C 489.660156 353.296875 449.296875 393.667969 449.296875 393.667969 C 428.859375 414.664062 392.378906 410.105469 377.753906 384.757812 C 374.03125 378.46875 365.917969 376.414062 359.648438 380.128906 C 345.835938 388.839844 357.601562 404.300781 365.980469 412.347656 C 380.042969 426.410156 398.507812 433.4375 416.972656 433.4375 C 435.449219 433.4375 453.914062 426.410156 467.976562 412.347656 L 508.339844 371.984375 C 536.335938 345.128906 536.347656 296.835938 508.339844 269.988281 Z M 508.339844 269.988281 "/><path style=" stroke:none;fill-rule:nonzero;fill:#ffffff;fill-opacity:1;" d="M 395.445312 447.519531 L 360.90625 482.050781 C 317.203125 523.539062 254.789062 461.15625 296.277344 417.421875 C 296.277344 417.421875 336.640625 377.050781 336.640625 377.050781 C 357.050781 356.101562 393.472656 360.566406 408.113281 385.886719 C 411.832031 392.171875 419.949219 394.246094 426.210938 390.511719 C 440 381.855469 428.289062 366.355469 419.957031 358.371094 C 391.832031 330.246094 346.085938 330.261719 317.960938 358.371094 C 317.960938 358.371094 277.597656 398.742188 277.597656 398.742188 C 232.15625 443.550781 265.480469 522.558594 328.59375 521.820312 C 347.058594 521.820312 365.53125 514.792969 379.585938 500.730469 L 414.128906 466.199219 C 426.1875 453.699219 407.9375 435.453125 395.445312 447.519531 Z M 395.445312 447.519531 "/></g></svg>